#!OML:ASF F:\VICON\USERDATA\INSTALL\rory3\rory3.ASF
:FULLY-SPECIFIED
:DEGREES
64
root -0.1992255334029493 17.64755279087286 31.6953084532383 0.5830928867966055 6.488394391170566 -1.2236809655090535
lfemur -25.28444756155497 -1.0204620608886694 -24.36556361934727
ltibia 36.592984774290095
lfoot -8.241447689091386 -12.886872425411287
ltoes 2.9260094064278936
rfemur -0.7283807383315128 -0.5219283543838311 26.171968244802002
rtibia 94.4630866803228
rfoot 19.591677448962617 -9.780906943364327
rtoes 7.966991030103976
lowerback 14.990215477153882 2.081377408062141 1.5947404822603626
upperback -0.2874009520510764 3.013938926275868 -0.46469403099902706
thorax -8.483421794294642 1.3807508465000837 -1.8318914442665517
lowerneck -18.98512080278843 -6.32982975767332 -2.410577226671223
upperneck 15.400768722262214 -8.883148492196142 4.738583111527237
head 8.29624536145978 -3.9070194084116414 0.9175636374690889
lclavicle -3.727171394731206e-16 -3.5456659777432967e-16
lhumerus -66.26448631721814 -2.1611457845465836 96.59569272645089
lradius 118.3500936252863
lwrist 37.88088441931903
lhand -23.11590777078934 3.6482477888405676
lfingers 7.125020000000059
lthumb 3.330863088480468 33.547334925747926
rclavicle -3.727171394731206e-16 -3.5456659777432967e-16
rhumerus -39.83643135419942 15.283093012814891 -100.83075582582771
rradius 108.16462738200963
rwrist -17.704570169121297
rhand -20.754972821648224 -5.4894864111371255
rfingers 7.125020000000059
rthumb 5.6083470445507615 13.35794250866476
65
root -0.20704339418697332 17.397747210249857 32.200154236192034 0.4251174421731535 6.431979618434523 0.06552382446103922
lfemur -23.1601239126801 -1.5262033491794742 -25.94960936880831
ltibia 41.14180314787176
lfoot -13.935914861208166 -9.377062950110027
ltoes 4.853005704577659
rfemur -6.454163007895524 -2.5798359722515856 22.93120967956932
rtibia 103.28418413684079
rfoot 18.440916536580815 -9.199361027631271
rtoes 9.340849804511077
lowerback 15.74035833489347 2.002276757271748 0.12321669586823969
upperback -0.06909631723731308 2.639708700140252 -0.865204656484001
thorax -8.689122274190233 1.2480407553897668 -1.33521966410208
lowerneck -19.372865346147552 -6.281411702986933 -2.3408626805733377
upperneck 15.285985212682853 -8.851900488469232 4.865611025471173
head 8.330869964795095 -3.868635206789948 0.9483283082248819
lclavicle -3.815190903893692e-16 -3.6138199057650453e-16
lhumerus -61.62802117518986 -3.9667938297301655 97.19049505437455
lradius 116.18814937804254
lwrist 38.53654893969718
lhand -23.37326406163189 4.633642869163468
lfingers 7.125020000000059
lthumb 3.082419831290512 34.53668441889651
rclavicle -3.815190903893692e-16 -3.6138199057650453e-16
rhumerus -41.270726934346165 13.990737140537654 -101.45119208410154
rradius 105.71503095632845
rwrist -17.70004088368766
rhand -20.98205977332569 -5.376885265146452
rfingers 7.125020000000059
rthumb 5.38908816030912 12.669656168279188
66
root -0.20995633635519517 17.197983692699978 33.10594514933996 0.5975003071311955 6.225860386821534 1.2830283328839496
lfemur -20.472521317607974 -1.9848563503247865 -27.379331222605177
ltibia 44.71374735039719
lfoot -19.00574887239155 -5.173021712488195
ltoes 4.642431536730048
rfemur -12.866765945436207 -4.2607056361430224 20.152601299224123
rtibia 111.07299239698474
rfoot 17.29130369893421 -8.104005469219263
rtoes 11.06564662669573
lowerback 16.37652834939974 1.9249388169858421 -1.1570499255742426
upperback 0.06769713355320245 2.2864318707885634 -1.2295413409880418
thorax -8.88967158653299 1.1199732241720208 -0.8641800124130629
lowerneck -19.782805130021078 -6.169381931352565 -2.263579319763169
upperneck 15.271247272266386 -8.723589756238008 4.959528490676714
head 8.399292949982463 -3.788264041721779 0.975274621165286
lclavicle -1.987929081620733e-16 -2.198965732881472e-16
lhumerus -56.418986044902255 -5.9184777511612126 97.67693343392031
lradius 114.42694567448616
lwrist 39.47261697083211
lhand -23.504140466265653 5.446117552709236
lfingers 7.125020000000059
lthumb 2.9560751698983916 35.350943536191906
rclavicle -1.987929081620733e-16 -2.198965732881472e-16
rhumerus -42.89158701213641 12.843124250979194 -101.84793783162088
rradius 104.08189075461803
rwrist -18.03663411971773
rhand -21.13151064137884 -5.162009017371002
rfingers 7.125020000000059
rthumb 5.244918455252915 12.248047174157907
67
root -0.21180104131461058 17.06691212455671 34.22305174378181 0.9866677916172624 5.906919291759873 2.1804833177164595
lfemur -17.36964340348364 -2.3829052090505227 -28.46537605860346
ltibia 46.720697799339774
lfoot -22.86456341814072 -1.2386759456661638
ltoes 2.26650587117805
rfemur -19.784343835751002 -5.634635089670185 18.160407339178555
rtibia 116.94709789925483
rfoot 15.848955037932415 -6.896438067589302
rtoes 12.476057232940757
lowerback 16.825204087172864 1.767901925657211 -2.11279206461578
upperback 0.10141288241734397 1.8835665460130677 -1.4631793293709754
thorax -9.095943574219866 0.9605193936302237 -0.4302051649683932
lowerneck -20.11034869304171 -5.974059023517466 -2.1912256289507033
upperneck 15.342086149128189 -8.469597320188257 4.960694361276041
head 8.472626324765699 -3.656039182144376 0.9866740082814162
lclavicle -5.653069745143587e-17 -1.0974251151665187e-16
lhumerus -51.22878056457065 -7.840320042130794 97.95876736921505
lradius 113.0605076236953
lwrist 40.404270326966554
lhand -23.541820801183544 5.670954950436002
lfingers 7.12502000000006
lthumb 2.9197024971325707 35.57724005142622
rclavicle -5.653069745143587e-17 -1.0974251151665187e-16
rhumerus -44.817429434207455 11.81227941710528 -102.05934247646582
rradius 103.06761826046625
rwrist -18.885793108877316
rhand -21.15072865050979 -5.1510240267198775
rfingers 7.12502000000006
rthumb 5.226514053359958 12.018593573764619
68
root -0.21206964408580636 17.008124792979693 35.44153827440496 1.4628748643953213 5.527554863515411 2.66370342337069
lfemur -13.912370827444752 -2.7302573537625023 -29.076420980055993
ltibia 47.06576479069327
lfoot -25.169871866349766 1.6913206382984374
ltoes -1.6412445594043827
rfemur -26.69248635569995 -6.785206596731987 17.126534949201197
rtibia 120.62038393636593
rfoot 14.046073105275378 -5.939224370881912
rtoes 13.025925681752636
lowerback 17.073070835878816 1.4935504231399537 -2.687955496843969
upperback 0.0482156357563201 1.4009302124242025 -1.515692965376277
thorax -9.287214567161326 0.7551701830088065 -0.015556642073249471
lowerneck -20.297240070973487 -5.696993351106138 -2.125316740696461
upperneck 15.470616205723154 -8.092878270385516 4.857940308088471
head 8.528851723647499 -3.4748357499900093 0.9803404343123994
lclavicle 2.0312853038617668e-17 -5.024229576990466e-17
lhumerus -46.48885441627374 -9.393129681240676 97.98012773664774
lradius 112.31435856235464
lwrist 41.28432348810552
lhand -23.506781076469476 5.254403559712635
lfingers 7.12502000000006
lthumb 2.9535361319378577 35.16243513342916
rclavicle 2.0312853038617668e-17 -5.024229576990466e-17
rhumerus -46.97249884471512 11.144020682396707 -102.17166086751041
rradius 102.76563606034928
rwrist -20.22920230217123
rhand -21.047636232675234 -5.4842073043337685
rfingers 7.12502000000006
rthumb 5.326256377369135 11.864965382526144
69
root -0.21844905245116414 17.013540996057014 36.35053240726651 1.9008332297924562 5.069311136341746 2.7100138924600476
lfemur -10.407312908794687 -3.0022073271498337 -29.243451270721216
ltibia 45.65927823149475
lfoot -25.90164943732476 3.160013849601735
ltoes -6.445205984732631
rfemur -33.10314038541829 -7.7461544302592795 16.991670666840992
rtibia 121.72148544682128
rfoot 11.963092738090674 -5.474579585191515
rtoes 12.380833120339338
lowerback 17.090839560839814 1.1042852214487922 -2.9486420900190424
upperback -0.07415023497163306 0.8381559138234074 -1.398568409326234
thorax -9.453185358126293 0.5050762160517013 0.36643119904452914
lowerneck -20.377610090758456 -5.3585523504447 -2.0728752800144172
upperneck 15.573073644298152 -7.62101742261363 4.644518973942592
head 8.546838345227147 -3.257268027854108 0.9534732629668273
lclavicle -1.490279793494523e-16 -1.8136335604651623e-16
lhumerus -42.66673952117349 -10.31552692986292 97.59594318022805
lradius 111.83861072192771
lwrist 41.96914718789529
lhand -23.459728247014947 4.328309801740714
lfingers 7.125020000000059
lthumb 2.9989567160805324 34.23795295292165
rclavicle -1.490279793494523e-16 -1.8136335604651623e-16
rhumerus -49.353612170958044 10.81309654381458 -102.34960011756114
rradius 102.72551524761386
rwrist -21.96167700452493
rhand -20.852223045193462 -6.1622615496786
rfingers 7.125020000000059
rthumb 5.515226986416424 11.57661328144721
70
root -0.22358796541488007 17.07862185180281 37.23155444933509 2.299224007242084 4.555490120803311 2.473400550834016
lfemur -6.702023842359532 -3.1170109830706174 -29.000351783262886
ltibia 43.1768065117327
lfoot -24.815461031127622 3.1876304520268315
ltoes -11.476052493887991
rfemur -38.35794729703273 -8.381392676613284 17.632242469993415
rtibia 120.43868326009272
rfoot 9.9908701448415 -5.437364638612115
rtoes 10.678421571879442
lowerback 16.915837643471118 0.6545610643745134 -2.9646405036854757
upperback -0.237389738545493 0.2541301717741846 -1.13853782848764
thorax -9.553576752887688 0.23869304660540228 0.7629375833729344
lowerneck -20.369428766885854 -4.956818486597213 -2.0335368778289196
upperneck 15.694793886097152 -7.04940880410422 4.3733394980581775
head 8.549617715961169 -3.0006890537318687 0.9225874039580955
lclavicle -2.8378663580793856e-16 -2.857073417490444e-16
lhumerus -39.680941234910705 -10.393084291963003 96.86385553944159
lradius 111.98644174854837
lwrist 42.66374076266791
lhand -23.388359372640203 3.3991562633659598
lfingers 7.125020000000059
lthumb 3.067849690617141 33.30971049748179
rclavicle -2.8378663580793856e-16 -2.857073417490444e-16
rhumerus -51.74176345266051 10.892271360723438 -102.43495806532701
rradius 103.21171334408993
rwrist -23.666365711195564
rhand -20.55847577847289 -6.964845874361561
rfingers 7.125020000000059
rthumb 5.799178543330449 11.18826505596884
